<svg width="107" height="44" viewBox="0 0 107 44" fill="none" xmlns="http://www.w3.org/2000/svg">
<path fill-rule="evenodd" clip-rule="evenodd" d="M16.7863 0.578143C28.4693 -2.17454 40.1523 5.16595 42.8968 16.9923C45.6161 28.8187 38.3646 40.645 26.7068 43.4232C14.9986 46.1759 3.31563 38.8099 0.571134 27.009C-2.14818 15.1827 5.10332 3.33083 16.7863 0.578143Z" fill="#E62D37"/>
<path fill-rule="evenodd" clip-rule="evenodd" d="M23.133 18.4702C23.5862 18.878 24.2912 18.827 24.6941 18.3683C25.097 17.9096 25.0466 17.1961 24.5934 16.7884C24.1402 16.3807 23.4352 16.4317 23.0323 16.8904C22.6294 17.3745 22.6546 18.088 23.133 18.4702Z" fill="white"/>
<path fill-rule="evenodd" clip-rule="evenodd" d="M18.626 29.9912C18.2231 30.8833 17.6944 31.6989 16.6369 32.7694C16.3851 33.0243 16.939 33.4576 17.1908 33.8144C17.2412 34.8339 17.2915 37.2043 17.6944 37.867L18.626 37.8415C18.0217 36.4906 18.2987 35.0378 18.3239 33.483C18.2735 33.2282 18.1476 32.9988 18.0217 32.7439C18.4246 31.8008 18.8778 31.2401 19.0792 30.0932L18.626 29.9912Z" fill="white"/>
<path fill-rule="evenodd" clip-rule="evenodd" d="M25.7758 30.858L24.6931 30.7815C24.7938 31.852 25.247 32.4892 25.7254 33.1009C25.4988 34.3498 25.1715 35.7771 25.247 37.6377H26.1787C26.3297 35.981 26.7074 33.993 27.1858 32.846C26.6067 32.3108 26.0024 31.3677 25.7758 30.858Z" fill="white"/>
<path d="M25.2982 24.1032V23.67C25.2982 23.5935 25.2227 23.5171 25.1472 23.5171C25.0716 23.5171 24.9961 23.5681 24.9961 23.67V24.1032C24.9961 24.1287 25.0213 24.1796 25.0213 24.1796C25.0968 24.1796 25.1723 24.1796 25.2227 24.1796C25.2731 24.1796 25.2982 24.1287 25.2982 24.1032Z" fill="white"/>
<path d="M23.7335 23.7719V23.3387C23.7335 23.2622 23.658 23.1858 23.5825 23.1858C23.5069 23.1858 23.4314 23.2368 23.4314 23.3387V23.7719C23.4818 23.8228 23.5321 23.8738 23.6076 23.8993C23.6832 23.8738 23.7335 23.8228 23.7335 23.7719Z" fill="white"/>
<path fill-rule="evenodd" clip-rule="evenodd" d="M25.799 21.8097C25.6983 21.8097 25.6983 21.7842 25.6983 21.7842C25.5975 22.1154 25.2954 22.3448 24.9177 22.3703L23.8602 22.3958C23.7343 22.3958 23.5832 22.3703 23.4573 22.3193C23.4322 22.4212 23.4322 22.5232 23.407 22.6251C23.5077 22.8799 23.9357 23.0838 24.5652 23.1857C25.4968 23.3131 26.504 23.1093 26.8313 22.727C27.209 22.3448 26.7558 21.9626 25.799 21.8097Z" fill="white"/>
<path fill-rule="evenodd" clip-rule="evenodd" d="M20.1846 23.007C20.2601 23.0325 20.3356 23.0325 20.4111 23.058L20.5117 22.8033L20.2097 22.7778C20.2097 22.8542 20.1846 22.9306 20.1846 23.007Z" fill="white"/>
<path fill-rule="evenodd" clip-rule="evenodd" d="M15.603 12.7107C16.5598 13.0165 18.1209 12.0735 19.4805 12.1754C20.5632 12.2519 22.4013 12.7107 23.4084 13.2459H23.4336L21.9732 17.3495C21.9984 17.7063 21.8725 18.0631 21.6207 18.369L21.5955 18.3945L20.6639 21.0452L20.8654 21.0707C20.9157 21.0707 20.9661 21.0962 21.0164 21.0962C21.0416 21.0197 21.0416 20.9687 21.0668 20.8923C21.2179 20.3315 21.4445 19.8728 21.6711 19.5414L22.4264 17.4004C22.4516 17.1965 22.5272 17.0181 22.6279 16.8652L26.3543 6.41519C26.4047 6.28775 26.3292 6.16031 26.2285 6.13483C26.1529 6.10934 26.0774 6.13483 26.027 6.16031V6.13483C25.5738 6.64458 22.5272 6.28775 19.8582 6.21129C17.8691 6.16031 15.7289 6.00739 14.2685 6.72104C13.3369 7.66409 11.7254 10.5187 10.8945 12.0735C12.7829 11.7931 14.3692 12.3029 15.603 12.7107Z" fill="white"/>
<path fill-rule="evenodd" clip-rule="evenodd" d="M35.3928 21.4018C33.5799 20.5097 33.454 19.3628 31.9684 18.1649C31.7922 18.2158 31.6915 18.2158 31.5908 18.1649C31.8677 17.9355 32.2706 17.6551 32.8749 18.2668C32.6986 17.5022 31.4145 17.1199 30.5584 17.6806C30.2815 17.4002 30.3066 17.0944 30.2563 16.7375C29.929 17.1708 29.8282 17.6551 29.8031 18.1904C29.3247 18.0119 28.8211 18.1394 28.3427 18.5217C27.688 19.0315 27.8139 19.1589 27.0082 19.4393C27.1341 19.5412 27.5118 19.5157 27.688 19.3883C27.3607 19.8726 26.6809 20.0765 26.1521 19.898C26.2528 20.2294 26.6809 20.3058 27.0586 20.2804C26.7564 20.5352 26.4543 20.8411 25.6234 20.6627C25.8752 20.9176 26.2528 21.096 26.6809 21.1215C26.555 21.2744 26.4039 21.4273 26.278 21.5293C27.2348 21.8351 27.3355 22.3194 27.1845 22.7782V23.5428C27.1845 23.5428 27.26 23.5683 27.26 23.6957C27.2348 23.9251 26.983 24.129 26.4543 24.2819C26.3032 24.3074 26.127 24.3329 25.9255 24.3584C26.0514 24.5113 26.1018 24.6898 26.1018 24.8682V24.8937V24.9191L25.7996 28.2071C25.7996 28.4874 25.7241 28.7168 25.573 28.8698C25.4471 29.0227 25.2457 29.1756 24.8932 29.1756H24.868C24.5407 29.1756 24.0119 28.9972 23.9616 28.0287V28.0032V27.9777L24.0875 25.5308C23.7601 25.4799 23.2062 25.4289 22.753 25.3269C22.6774 25.3269 22.6019 25.3015 22.5264 25.276V28.1306C22.5264 28.6659 22.1739 29.0227 21.6451 29.0482H21.6199H21.5948C21.066 28.9717 20.8394 28.6659 20.7639 28.0287L20.6631 25.2505C20.4869 25.225 20.3106 25.225 20.1596 25.1995C19.5804 25.1485 19.102 25.0976 18.7244 25.0211C18.6992 25.0211 18.6992 25.0211 18.674 25.0211C18.2711 24.9446 17.9438 24.7152 17.7676 24.3839C17.692 24.2565 17.6669 24.1545 17.6165 24.0271C17.4654 24.0526 17.3395 24.0526 17.2388 24.078C16.9367 24.18 16.6597 24.3074 16.4331 24.4858C15.3756 23.6957 13.89 23.3644 12.7318 24.0016C11.2714 24.7662 11.7246 26.1426 10.0125 26.4229C10.9441 26.8052 12.1023 26.3719 12.5807 25.3779C12.3541 26.5249 9.88658 27.9267 9.00532 25.8622C8.65282 26.27 8.92978 27.0346 9.40818 27.2895C8.678 27.4934 8.37585 27.0601 8.12406 26.6013C8.02334 28.7933 9.55926 30.0167 11.8254 28.8698C11.6239 29.3285 10.8182 29.8383 9.48372 29.7618C12.3541 30.6029 13.9907 28.0032 14.0159 26.8562C14.1166 27.2895 14.0411 27.6973 13.7641 28.2326C15.6022 27.264 14.0663 25.1485 15.7029 25.0211C15.7784 25.0211 15.8288 25.0211 15.9043 25.0211C15.5015 25.5054 15.2497 26.1171 15.2245 26.9072C15.1993 27.4934 15.4008 28.0032 15.7281 28.411C15.2749 29.7363 15.0482 31.0872 14.3936 32.0812C14.2677 32.7949 14.5698 33.5595 14.6957 34.3496C14.9727 35.9554 14.7209 36.771 14.6706 37.7395H15.8036C15.9799 36.6435 16.005 34.9359 15.8792 32.7439C16.8863 31.9283 17.7927 30.7049 18.3467 29.4305H18.3215C21.494 29.6344 22.4005 30.2716 26.2025 30.399C26.5046 31.2401 27.1341 32.1322 27.8139 32.6674C28.2672 33.8399 28.1413 35.8534 28.2672 37.5356H29.2743C29.1736 35.5985 29.2743 34.1457 29.3498 32.591C28.9973 31.3166 28.7204 30.2716 28.7456 29.354C29.0477 28.9972 29.2743 28.5639 29.3498 28.0287V28.0541C29.5513 25.4544 29.7779 22.5233 30.6088 21.6057C31.6915 21.5038 33.0008 22.5233 34.8892 22.7782C35.0906 22.6252 35.141 22.2939 35.141 21.9116C35.2417 21.9371 35.3676 21.8351 35.3928 21.4018Z" fill="white"/>
<path fill-rule="evenodd" clip-rule="evenodd" d="M25.5488 24.5366C25.2718 24.5366 25.0956 24.5366 24.5668 24.4856C23.7611 24.4092 23.0561 24.1288 23.0309 23.5935C23.0309 23.5935 23.0813 22.625 23.2072 22.0898C23.2072 22.0898 23.0813 21.8604 23.0813 21.8349C23.0813 21.8349 22.8547 20.9428 22.9554 20.7899C22.9806 20.7389 23.0309 20.7134 23.0813 20.6879L23.3079 21.58C23.3331 21.7074 23.4086 21.8349 23.5093 21.9113C23.61 22.0133 23.7359 22.0643 23.887 22.0643L24.9445 22.0388C25.2215 22.0388 25.4229 21.8349 25.4229 21.6055C25.4229 21.2996 25.1963 21.1722 24.9445 21.1977L24.315 21.2232L24.0129 20.0762C24.0129 20.0252 23.9877 19.9743 23.9625 19.9488C23.9122 19.592 23.6856 19.2351 23.2324 19.1587C22.7288 19.0567 22.4266 19.2606 22.0238 19.7449C21.772 20.0507 21.5454 20.6115 21.3691 21.2996C21.4195 21.3251 21.4698 21.3761 21.5202 21.4271C21.6964 21.6055 21.772 21.8349 21.772 22.0643V22.0898C21.7468 22.3191 21.6461 22.5231 21.4698 22.676C21.3943 22.7524 21.2936 22.8034 21.1929 22.8289C21.1929 22.8799 21.1929 22.9309 21.1929 22.9818C21.1929 23.1093 21.1929 23.2112 21.218 23.3387C21.4447 23.4151 21.6461 23.4661 21.8475 23.5426C22.3511 23.721 22.5022 24.0523 22.5274 24.2562C22.5525 24.3582 22.5777 24.4856 22.5777 24.5876V25.1228C22.6784 25.1483 22.754 25.1738 22.8799 25.1993C23.5597 25.3267 24.4661 25.4287 24.5165 25.4287L24.3906 28.2068C24.4158 28.7166 24.592 28.997 24.9445 28.997C25.3222 28.997 25.5236 28.7421 25.5236 28.3598L25.8258 25.0718C25.7754 24.6895 25.574 24.5366 25.5488 24.5366Z" fill="white"/>
<path fill-rule="evenodd" clip-rule="evenodd" d="M22.1246 24.2303C22.0994 24.0519 21.9735 23.8735 21.6714 23.7716C21.0167 23.5422 20.3621 23.3892 19.8081 23.2618C19.8081 23.1089 19.8333 22.9305 19.8333 22.7266L19.229 22.6756C18.7758 22.6246 18.524 22.3188 18.5744 21.8855C18.5995 21.7071 18.7254 21.5796 18.8765 21.4777C18.801 21.5541 18.7506 21.6561 18.7254 21.7835C18.7003 22.0639 18.952 22.3188 19.2542 22.3442L20.6894 22.4462C21.0167 22.4717 21.2937 22.2678 21.2937 21.9874C21.3189 21.7071 21.0671 21.4522 20.7649 21.4267L19.9592 21.3757V21.2738C20.0599 20.8405 20.1858 20.4327 20.3621 20.2033C20.6139 19.821 20.4376 19.0053 19.7578 18.8779C19.2542 18.776 18.952 18.9799 18.5492 19.4641C18.0204 20.1013 17.542 22.2423 17.7686 23.6441C17.819 24.001 17.8945 24.6127 18.6247 24.7656C18.6499 24.7656 18.6751 24.7656 18.6751 24.7656C19.1787 24.893 19.9592 24.9185 20.7901 25.0205C20.8153 25.0205 20.8656 25.046 20.8908 25.046L21.0167 28.1045C21.0671 28.6143 21.2433 28.7417 21.5455 28.7927C21.8728 28.7672 22.0994 28.5888 22.0994 28.2319V24.4852C22.1749 24.3833 22.1749 24.3068 22.1246 24.2303Z" fill="white"/>
<path fill-rule="evenodd" clip-rule="evenodd" d="M19.8312 18.2664C20.2844 18.6487 20.9643 18.6232 21.342 18.1645C21.7196 17.7058 21.6693 17.0178 21.2412 16.6356C20.788 16.2533 20.1082 16.2788 19.7305 16.7375C19.3528 17.1962 19.4032 17.8587 19.8312 18.2664Z" fill="white"/>
<path d="M26.1054 23.5938C26.1054 23.5174 26.0298 23.4409 25.9543 23.4409C25.8788 23.4409 25.8032 23.4919 25.8032 23.5938V24.027C25.8032 24.1035 25.8788 24.1799 25.9543 24.1799C26.0298 24.1799 26.1054 24.1289 26.1054 24.027V23.5938Z" fill="white"/>
<path d="M26.8104 23.3643C26.8104 23.2879 26.7349 23.2114 26.6594 23.2114C26.5838 23.2114 26.5083 23.2624 26.5083 23.3643V23.7975C26.5083 23.874 26.5838 23.9504 26.6594 23.9504C26.7349 23.9504 26.8104 23.8994 26.8104 23.7975V23.3643Z" fill="white"/>
<path d="M24.3649 23.4409C24.2894 23.4409 24.2139 23.4919 24.2139 23.5938V24.027C24.2139 24.0525 24.239 24.078 24.239 24.1035C24.2894 24.1035 24.3649 24.1289 24.4405 24.1289C24.4657 24.1035 24.4908 24.078 24.4908 24.027V23.5938C24.4908 23.4919 24.4405 23.4409 24.3649 23.4409Z" fill="white"/>
<path d="M51.2297 12.7866H53.3951V21.2996L57.8266 12.7866H60.2438L56.2655 20.382L60.3948 31.2143H58.1036L54.931 22.9053L53.3951 25.8874V31.2143H51.2297V12.7866Z" fill="black" fill-opacity="0.85"/>
<path d="M64.9038 29.0726C65.5584 29.0726 66.0872 28.5119 66.0872 27.8492V17.1443H68.2525V27.7217C68.2525 29.5823 66.7418 31.1371 64.9038 31.1371C63.0657 31.1371 61.5298 29.5823 61.5298 27.7217V17.1443H63.6952V27.8492C63.6952 28.5119 64.2491 29.0726 64.9038 29.0726Z" fill="black" fill-opacity="0.85"/>
<path d="M70.6426 17.1443H74.0165C75.8546 17.1443 77.3653 18.6736 77.3653 20.5342V27.5943C77.3653 29.4549 75.8546 30.9842 74.0165 30.9842H70.6426V17.1443ZM72.808 28.8942H74.0165C74.6712 28.8942 75.2 28.3589 75.2 27.6962V20.3812C75.2 19.7186 74.6712 19.1833 74.0165 19.1833H72.808V28.8942Z" fill="black" fill-opacity="0.85"/>
<path d="M86.4312 30.9587H84.4169L83.9385 28.4609H81.4207L80.9674 30.9587H78.9531L81.6221 17.1443H83.7875L86.4312 30.9587ZM81.7983 26.4473H83.5609L82.7048 21.8086L81.7983 26.4473Z" fill="black" fill-opacity="0.85"/>
<path d="M92.9033 29.3284C94.1874 29.3284 95.2197 28.2579 95.2197 26.958V25.8875H92.9033V23.8485H97.3851V26.8051C97.3851 29.3284 95.3708 31.3674 92.9033 31.3674C90.4105 31.3674 88.3962 29.3284 88.3962 26.8051V17.1707C88.3962 14.6474 90.4105 12.6084 92.9033 12.6084C95.396 12.6084 97.3851 14.6474 97.3851 17.1707V17.9863H95.2197V17.0433C95.2197 15.7179 94.1622 14.6729 92.9033 14.6729C91.594 14.6729 90.5616 15.7434 90.5616 17.0433V26.958C90.5616 28.2579 91.594 29.3284 92.9033 29.3284Z" fill="black" fill-opacity="0.85"/>
<path d="M99.977 20.3814C99.977 18.5208 101.513 16.9661 103.351 16.9661C105.189 16.9661 106.7 18.5208 106.7 20.3814V27.6964C106.7 29.557 105.189 31.1118 103.351 31.1118C101.513 31.1118 99.977 29.557 99.977 27.6964V20.3814ZM103.351 29.0728C104.006 29.0728 104.534 28.512 104.534 27.8494V20.254C104.534 19.5913 104.006 19.0306 103.351 19.0306C102.696 19.0306 102.142 19.5913 102.142 20.254V27.8494C102.142 28.512 102.671 29.0728 103.351 29.0728Z" fill="black" fill-opacity="0.85"/>
</svg>
